HIERARCHY
ROOT Hips
{
  OFFSET 28.0269 98.4805 -42.6318
  CHANNELS 6 Xposition Yposition Zposition Zrotation Xrotation Yrotation
  JOINT spine
  {
    OFFSET 0 8.30104 0.477351
    CHANNELS 3 Zrotation Xrotation Yrotation
    JOINT spine1
    {
      OFFSET 0 10.4565 0
      CHANNELS 3 Zrotation Xrotation Yrotation
      JOINT spine2
      {
        OFFSET 0 10.0192 0
        CHANNELS 3 Zrotation Xrotation Yrotation
        JOINT Neck
        {
          OFFSET 0 25.7235 1.22641
          CHANNELS 3 Zrotation Xrotation Yrotation
          JOINT Head
          {
            OFFSET 0 7.77175 0
            CHANNELS 3 Zrotation Xrotation Yrotation
            End Site
            {
              OFFSET 0 18.812 -6.20394
            }
          }
        }
        JOINT RightShoulder
        {
          OFFSET -4.2188 10.82 -0.587439
          CHANNELS 3 Zrotation Xrotation Yrotation
          JOINT RightArm
          {
            OFFSET 0 14.1914 0
            CHANNELS 3 Zrotation Xrotation Yrotation
            JOINT RightArmRoll
            {
              OFFSET 0 7.16408 0
              CHANNELS 3 Zrotation Xrotation Yrotation
              JOINT RightForeArm
              {
                OFFSET 0 20.8665 0
                CHANNELS 3 Zrotation Xrotation Yrotation
                JOINT RightForeArmRoll
                {
                  OFFSET 0 8.03921 0
                  CHANNELS 3 Zrotation Xrotation Yrotation
                  JOINT RightHand
                  {
                    OFFSET 0 16.133 0
                    CHANNELS 3 Zrotation Xrotation Yrotation
                    End Site
                    {
                      OFFSET 0 0 0
                    }
                  }
                }
              }
            }
          }
        }
        JOINT LeftShoulder
        {
          OFFSET 4.2188 10.82 -0.587439
          CHANNELS 3 Zrotation Xrotation Yrotation
          JOINT LeftArm
          {
            OFFSET 0 14.1914 0
            CHANNELS 3 Zrotation Xrotation Yrotation
            JOINT LeftArmRoll
            {
              OFFSET 0 7.16408 0
              CHANNELS 3 Zrotation Xrotation Yrotation
              JOINT LeftForeArm
              {
                OFFSET 0 20.8665 0
                CHANNELS 3 Zrotation Xrotation Yrotation
                JOINT LeftForeArmRoll
                {
                  OFFSET 0 8.03921 0
                  CHANNELS 3 Zrotation Xrotation Yrotation
                  JOINT LeftHand
                  {
                    OFFSET 0 16.133 0
                    CHANNELS 3 Zrotation Xrotation Yrotation
                    End Site
                    {
                      OFFSET 0 0 0
                    }
                  }
                }
              }
            }
          }
        }
      }
    }
  }
  JOINT RightUpLeg
  {
    OFFSET -7.35773 -1.34921 -1.13182
    CHANNELS 3 Zrotation Xrotation Yrotation
    JOINT RightUpLegRoll
    {
      OFFSET 0 18.9168 0
      CHANNELS 3 Zrotation Xrotation Yrotation
      JOINT RightLeg
      {
        OFFSET 0 -23.4256 0
        CHANNELS 3 Zrotation Xrotation Yrotation
        JOINT RightLegRoll
        {
          OFFSET 0 23.5023 0
          CHANNELS 3 Zrotation Xrotation Yrotation
          JOINT RightFoot
          {
            OFFSET 0 19.5617 0
            CHANNELS 3 Zrotation Xrotation Yrotation
            JOINT RightToeBase
            {
              OFFSET 0 16.3526 0
              CHANNELS 3 Zrotation Xrotation Yrotation
              End Site
              {
                OFFSET 0.00693125 7.91944 -0.912837
              }
            }
          }
        }
      }
    }
  }
  JOINT LeftUpLeg
  {
    OFFSET 7.35773 -1.34921 -1.13182
    CHANNELS 3 Zrotation Xrotation Yrotation
    JOINT LeftUpLegRoll
    {
      OFFSET 0 18.9169 0
      CHANNELS 3 Zrotation Xrotation Yrotation
      JOINT LeftLeg
      {
        OFFSET 0 23.4255 0
        CHANNELS 3 Zrotation Xrotation Yrotation
        JOINT LeftLegRoll
        {
          OFFSET 0 23.7195 0
          CHANNELS 3 Zrotation Xrotation Yrotation
          JOINT LeftFoot
          {
            OFFSET 0 19.3444 0
            CHANNELS 3 Zrotation Xrotation Yrotation
            JOINT LeftToeBase
            {
              OFFSET 0 16.3526 0
              CHANNELS 3 Zrotation Xrotation Yrotation
              End Site
              {
                OFFSET -0.0310629 7.91943 -0.912837
              }
            }
          }
        }
      }
    }
  }
}
MOTION
Frames: 12
Frame Time: 0.00208333
29.9053 98.9924 -24.071 0.630068 -4.71256 2.98625 0.114497 -0.7615 0.183255 0.217397 2.45655 0.368626 0.213197 4.10161 0.365792 0.653688 18.0126 -2.86736 -0.948058 -4.16688 -2.80322 75.1831 -0.422699 -2.08482 94.0218 28.2414 23.6607 -5.63934e-008 -1.00211e-005 -2.10351e-005 8.20479 0.0641475 -0.220352 -7.45556e-006 1.03967e-006 -3.08552 8.02913 -4.95145 0.69768 -67.4638 4.36155 -1.18797 -100.641 19.4799 -15.1936 -2.14687e-014 -6.36111e-015 -6.36111e-015 -8.86814 0.0704749 0.679389 4.79855e-006 -8.8849e-007 3.02567 -8.02905 -4.95146 -0.697682 173.689 -3.60927 2.13185 180 7.0152e-015 178.811 176.548 4.22975 179.719 1.85447e-006 -5.90436e-006 0.0501789 -18.7582 67.9669 19.5169 8.13413 25.2328 -3.48673 -173.109 -3.99087 -1.003 4.54188e-006 -4.6773e-006 -1.31956 -3.47738 -6.87456 0.454985 -8.91502e-007 -2.57141e-006 -0.0794996 17.7479 66.4304 -18.3134 -8.12486 25.2333 3.48277 
29.8917 98.9968 -24.0714 0.630598 -4.70946 2.98976 0.11446 -0.761307 0.183266 0.21783 2.45849 0.366936 0.213648 4.10355 0.364672 0.640064 18.0193 -2.86222 -0.936982 -4.17486 -2.80057 75.1749 -0.422306 -2.0838 94.0318 28.2306 23.6758 -5.63934e-008 -1.00211e-005 -2.10351e-005 8.1919 0.0641496 -0.220371 -7.45556e-006 1.03967e-006 -3.08556 8.02913 -4.95145 0.69768 -67.4703 4.359 -1.18564 -100.63 19.4591 -15.2188 -1.03368e-014 0 -4.77083e-015 -8.86007 0.0704764 0.681995 4.79855e-006 -8.8849e-007 3.02567 -8.02905 -4.95146 -0.697682 173.69 -3.60875 2.12591 180 7.0152e-015 178.811 176.557 4.22679 179.718 1.85447e-006 -5.90436e-006 0.0501789 -18.7591 67.968 19.5174 8.13413 25.2328 -3.48673 -173.107 -3.98862 -1.00556 4.54188e-006 -4.6773e-006 -1.31956 -3.48037 -6.87374 0.454659 -8.91502e-007 -2.57141e-006 -0.0794996 17.7487 66.4315 -18.3143 -8.12486 25.2333 3.48277 
29.8933 98.9776 -24.068 0.631157 -4.7064 2.99325 0.114404 -0.761178 0.183277 0.218265 2.46037 0.365195 0.214101 4.10543 0.363539 0.626261 18.0263 -2.85702 -0.925856 -4.18289 -2.7979 75.1668 -0.421854 -2.08276 94.0417 28.2199 23.6911 -5.63934e-008 -1.00211e-005 -2.10351e-005 8.1789 0.0641517 -0.220406 -7.45556e-006 1.03967e-006 -3.08559 8.02913 -4.95145 0.69768 -67.477 4.35642 -1.18324 -100.619 19.438 -15.2436 9.54166e-015 6.36111e-015 1.59028e-015 -8.85247 0.0704779 0.684575 4.79855e-006 -8.8849e-007 3.02567 -8.02905 -4.95146 -0.697682 173.69 -3.60842 2.11962 180 7.0152e-015 178.811 176.566 4.22352 179.717 1.85447e-006 -5.90436e-006 0.0501789 -18.7601 67.9692 19.518 8.13413 25.2328 -3.48673 -173.106 -3.98653 -1.008 4.54188e-006 -4.6773e-006 -1.31956 -3.4833 -6.87276 0.45434 -8.91502e-007 -2.57141e-006 -0.0794996 17.7496 66.4327 -18.3152 -8.12486 25.2333 3.48277 
29.8988 98.9772 -24.0611 0.631735 -4.70337 2.99673 0.114336 -0.761093 0.183286 0.2187 2.46221 0.363418 0.214554 4.10727 0.362398 0.612334 18.0334 -2.85177 -0.914694 -4.19096 -2.79522 75.1587 -0.421362 -2.0817 94.0516 28.2093 23.7064 -5.63934e-008 -1.00211e-005 -2.10351e-005 8.16581 0.0641538 -0.220453 -7.45556e-006 1.03967e-006 -3.08561 8.02913 -4.95145 0.69768 -67.484 4.35383 -1.1808 -100.607 19.4167 -15.2683 -8.74653e-015 0 -3.18055e-015 -8.8452 0.0704793 0.687137 4.79855e-006 -8.8849e-007 3.02567 -8.02905 -4.95146 -0.697682 173.691 -3.60822 2.1131 180 7.0152e-015 178.811 176.576 4.22001 179.716 1.85447e-006 -5.90436e-006 0.0501789 -18.7612 67.9705 19.5186 8.13413 25.2328 -3.48673 -173.104 -3.98457 -1.01035 4.54188e-006 -4.6773e-006 -1.31956 -3.48618 -6.87167 0.454028 -8.91502e-007 -2.57141e-006 -0.0794996 17.7506 66.434 -18.3163 -8.12486 25.2333 3.48277 
29.8936 98.9801 -24.0594 0.632325 -4.70035 3.00021 0.11426 -0.761035 0.183295 0.219136 2.46403 0.36162 0.215009 4.10909 0.361252 0.598334 18.0406 -2.8465 -0.903512 -4.19904 -2.79252 75.1507 -0.420847 -2.08065 94.0615 28.1989 23.7218 -5.63934e-008 -1.00211e-005 -2.10351e-005 8.15268 0.0641559 -0.220506 -7.45556e-006 1.03967e-006 -3.08564 8.02913 -4.95145 0.69768 -67.4911 4.35122 -1.17833 -100.596 19.3952 -15.2929 7.15625e-015 3.18055e-015 -0 -8.83812 0.0704806 0.68969 4.79855e-006 -8.8849e-007 3.02567 -8.02905 -4.95146 -0.697682 173.691 -3.6081 2.10643 180 7.0152e-015 178.811 176.586 4.21639 179.715 1.85447e-006 -5.90436e-006 0.0501789 -18.7623 67.9718 19.5193 8.13413 25.2328 -3.48673 -173.103 -3.98266 -1.01266 4.54188e-006 -4.6773e-006 -1.31956 -3.48904 -6.87052 0.453718 -8.91502e-007 -2.57141e-006 -0.0794996 17.7516 66.4354 -18.3173 -8.12486 25.2333 3.48277 
29.891 98.9703 -24.061 0.632917 -4.69734 3.00369 0.114182 -0.760983 0.183304 0.219572 2.46585 0.359818 0.215463 4.1109 0.360104 0.584315 18.0478 -2.84122 -0.892324 -4.20714 -2.78982 75.1427 -0.420326 -2.07958 94.0713 28.1884 23.7372 -5.63934e-008 -1.00211e-005 -2.10351e-005 8.13953 0.064158 -0.220561 -7.45556e-006 1.03967e-006 -3.08566 8.02913 -4.95145 0.69768 -67.4982 4.3486 -1.17585 -100.584 19.3737 -15.3175 -3.18055e-015 -6.36111e-015 -3.18055e-015 -8.83109 0.070482 0.69224 4.79855e-006 -8.8849e-007 3.02567 -8.02905 -4.95146 -0.697682 173.692 -3.608 2.09974 180 7.0152e-015 178.811 176.596 4.21273 179.714 1.85447e-006 -5.90436e-006 0.0501789 -18.7634 67.9732 19.52 8.13413 25.2328 -3.48673 -173.101 -3.98078 -1.01496 4.54188e-006 -4.6773e-006 -1.31956 -3.49189 -6.86936 0.45341 -8.91502e-007 -2.57141e-006 -0.0794996 17.7526 66.4368 -18.3184 -8.12486 25.2333 3.48277 
29.8894 98.9853 -24.0574 0.633503 -4.69432 3.00717 0.114109 -0.760917 0.183313 0.220008 2.46767 0.358025 0.215917 4.11273 0.35896 0.57033 18.055 -2.83595 -0.881145 -4.21522 -2.78713 75.1346 -0.419817 -2.07853 94.0812 28.1779 23.7526 -5.63934e-008 -1.00211e-005 -2.10351e-005 8.12641 0.0641601 -0.220612 -7.45556e-006 1.03967e-006 -3.08569 8.02913 -4.95145 0.69768 -67.5052 4.346 -1.17339 -100.573 19.3522 -15.342 -2.06736e-014 -3.18055e-015 -7.95139e-015 -8.82396 0.0704834 0.694795 4.79855e-006 -8.8849e-007 3.02567 -8.02905 -4.95146 -0.697682 173.692 -3.60786 2.09311 180 7.0152e-015 178.811 176.606 4.20913 179.714 1.85447e-006 -5.90436e-006 0.0501789 -18.7645 67.9745 19.5207 8.13413 25.2328 -3.48673 -173.1 -3.97886 -1.01728 4.54188e-006 -4.6773e-006 -1.31956 -3.49475 -6.86823 0.4531 -8.91502e-007 -2.57141e-006 -0.0794996 17.7536 66.4381 -18.3195 -8.12486 25.2333 3.48277 
29.8958 98.9786 -24.0508 0.634074 -4.69128 3.01066 0.114044 -0.76082 0.183322 0.220444 2.46953 0.356259 0.216371 4.11458 0.357821 0.556432 18.062 -2.83071 -0.86999 -4.22328 -2.78444 75.1266 -0.419337 -2.07748 94.0911 28.1673 23.7679 -5.63934e-008 -1.00211e-005 -2.10351e-005 8.11334 0.0641622 -0.220656 -7.45556e-006 1.03967e-006 -3.08572 8.02913 -4.95145 0.69768 -67.5122 4.34341 -1.17096 -100.562 19.3309 -15.3668 -2.38542e-015 3.18055e-015 -3.18055e-015 -8.8166 0.0704848 0.697363 4.79855e-006 -8.8849e-007 3.02567 -8.02905 -4.95146 -0.697682 173.693 -3.60763 2.08665 180 7.0152e-015 178.811 176.615 4.2057 179.713 1.85447e-006 -5.90436e-006 0.0501789 -18.7656 67.9758 19.5213 8.13413 25.2328 -3.48673 -173.098 -3.97686 -1.01966 4.54188e-006 -4.6773e-006 -1.31956 -3.49764 -6.86717 0.452786 -8.91502e-007 -2.57141e-006 -0.0794996 17.7545 66.4394 -18.3205 -8.12486 25.2333 3.48277 
29.8941 98.9853 -24.0487 0.634622 -4.68821 3.01415 0.113994 -0.760672 0.183333 0.220879 2.47143 0.354533 0.216824 4.11648 0.356692 0.542674 18.0689 -2.82552 -0.858875 -4.23129 -2.78178 75.1184 -0.418903 -2.07644 94.1011 28.1566 23.7831 -5.63934e-008 -1.00211e-005 -2.10351e-005 8.10037 0.0641642 -0.220686 -7.45556e-006 1.03967e-006 -3.08575 8.02913 -4.95145 0.69768 -67.5188 4.34084 -1.16858 -100.551 19.3099 -15.3917 1.59028e-015 3.18055e-015 -0 -8.80886 0.0704863 0.69995 4.79855e-006 -8.8849e-007 3.02567 -8.02905 -4.95146 -0.697682 173.694 -3.60724 2.08047 180 7.0152e-015 178.811 176.624 4.20252 179.712 1.85447e-006 -5.90436e-006 0.0501789 -18.7666 67.9769 19.5218 8.13413 25.2328 -3.48673 -173.097 -3.97472 -1.02214 4.54188e-006 -4.6773e-006 -1.31956 -3.50059 -6.86624 0.452465 -8.91502e-007 -2.57141e-006 -0.0794996 17.7554 66.4405 -18.3214 -8.12486 25.2333 3.48277 
29.8881 98.981 -24.0441 0.635137 -4.68509 3.01766 0.113964 -0.760453 0.183345 0.221312 2.47339 0.352863 0.217275 4.11844 0.355576 0.529111 18.0755 -2.82041 -0.847813 -4.23925 -2.77914 75.1102 -0.418532 -2.07543 94.1112 28.1457 23.7981 -5.63934e-008 -1.00211e-005 -2.10351e-005 8.08753 0.0641663 -0.220699 -7.45556e-006 1.03967e-006 -3.08578 8.02913 -4.95145 0.69768 -67.5252 4.33831 -1.16627 -100.54 19.2893 -15.4169 -7.95139e-016 6.36111e-015 -1.59028e-015 -8.80059 0.0704879 0.702566 4.79855e-006 -8.8849e-007 3.02567 -8.02905 -4.95146 -0.697682 173.694 -3.60665 2.07466 180 7.0152e-015 178.811 176.633 4.1997 179.711 1.85447e-006 -5.90436e-006 0.0501789 -18.7674 67.9779 19.5223 8.13413 25.2328 -3.48673 -173.095 -3.9724 -1.02474 4.54188e-006 -4.6773e-006 -1.31956 -3.5036 -6.86548 0.452135 -8.91502e-007 -2.57141e-006 -0.0794996 17.7561 66.4415 -18.3222 -8.12486 25.2333 3.48277 
29.8904 98.9896 -24.0407 0.635611 -4.68192 3.02119 0.113959 -0.760145 0.183359 0.221745 2.47542 0.351265 0.217724 4.12048 0.354477 0.515794 18.0818 -2.81538 -0.836821 -4.24713 -2.77654 75.1019 -0.418243 -2.07444 94.1215 28.1346 23.813 -5.63934e-008 -1.00211e-005 -2.10351e-005 8.07485 0.0641683 -0.220689 -7.45556e-006 1.03967e-006 -3.08582 8.02913 -4.95145 0.69768 -67.5311 4.33581 -1.16405 -100.53 19.2692 -15.4424 -5.56597e-015 0 -4.77083e-015 -8.79167 0.0704896 0.705216 4.79855e-006 -8.8849e-007 3.02567 -8.02905 -4.95146 -0.697682 173.695 -3.60579 2.06933 180 7.0152e-015 178.811 176.641 4.19733 179.71 1.85447e-006 -5.90436e-006 0.0501789 -18.7682 67.9788 19.5226 8.13413 25.2328 -3.48673 -173.094 -3.96985 -1.02751 4.54188e-006 -4.6773e-006 -1.31956 -3.5067 -6.86493 0.451794 -8.91502e-007 -2.57141e-006 -0.0794996 17.7567 66.4423 -18.3228 -8.12486 25.2333 3.48277 
29.887 98.99 -24.0481 0.636034 -4.67867 3.02473 0.113985 -0.759728 0.183376 0.222175 2.47756 0.349753 0.21817 4.12261 0.353398 0.502777 18.0876 -2.81046 -0.825913 -4.25493 -2.77397 75.0934 -0.418053 -2.07348 94.132 28.1233 23.8276 -5.63934e-008 -1.00211e-005 -2.10351e-005 8.06237 0.0641703 -0.220651 -7.45556e-006 1.03967e-006 -3.08587 8.02913 -4.95145 0.69768 -67.5366 4.33337 -1.16193 -100.521 19.2496 -15.4684 -3.18055e-015 6.36111e-015 -3.18055e-015 -8.78194 0.0704914 0.707909 4.79855e-006 -8.8849e-007 3.02567 -8.02905 -4.95146 -0.697682 173.695 -3.6046 2.06459 180 7.0152e-015 178.811 176.648 4.1955 179.71 1.85447e-006 -5.90436e-006 0.0501789 -18.7688 67.9795 19.5228 8.13413 25.2328 -3.48673 -173.092 -3.96701 -1.03049 4.54188e-006 -4.6773e-006 -1.31956 -3.50991 -6.86464 0.451439 -8.91502e-007 -2.57141e-006 -0.0794996 17.757 66.4428 -18.3232 -8.12486 25.2333 3.48277 
